<mxfile host="Electron" modified="2024-04-15T15:47:49.665Z" agent="Mozilla/5.0 (Windows NT 10.0; Win64; x64) AppleWebKit/537.36 (KHTML, like Gecko) draw.io/23.1.5 Chrome/120.0.6099.109 Electron/28.1.0 Safari/537.36" etag="TQTS8ra6Y6dT4epBwrrX" version="23.1.5" type="device" pages="3">
  <diagram id="dr84ATfy2s_csqID7k3z" name="Diagrama_Casos_Uso">
    <mxGraphModel dx="4492" dy="2038" grid="0" gridSize="10" guides="1" tooltips="1" connect="1" arrows="1" fold="1" page="1" pageScale="1" pageWidth="2000" pageHeight="1000" math="0" shadow="0">
      <root>
        <mxCell id="0" />
        <mxCell id="1" parent="0" />
        <mxCell id="lOmS7LGI5ybByQJQdkzE-1" value="Cliente" style="shape=umlActor;verticalLabelPosition=bottom;verticalAlign=top;html=1;outlineConnect=0;fillColor=#d5e8d4;strokeColor=#82b366;" parent="1" vertex="1">
          <mxGeometry x="-1487" y="-643" width="30" height="60" as="geometry" />
        </mxCell>
        <mxCell id="lOmS7LGI5ybByQJQdkzE-2" value="Producto_Bancario" style="ellipse;whiteSpace=wrap;html=1;fillColor=#d5e8d4;strokeColor=#82b366;" parent="1" vertex="1">
          <mxGeometry x="-1109" y="-663" width="140" height="80" as="geometry" />
        </mxCell>
        <mxCell id="lOmS7LGI5ybByQJQdkzE-4" value="Personal" style="shape=umlActor;verticalLabelPosition=bottom;verticalAlign=top;html=1;outlineConnect=0;" parent="1" vertex="1">
          <mxGeometry x="-1621" y="-719" width="30" height="60" as="geometry" />
        </mxCell>
        <mxCell id="lOmS7LGI5ybByQJQdkzE-5" value="Empresarial" style="shape=umlActor;verticalLabelPosition=bottom;verticalAlign=top;html=1;outlineConnect=0;" parent="1" vertex="1">
          <mxGeometry x="-1606" y="-535" width="30" height="60" as="geometry" />
        </mxCell>
        <mxCell id="lOmS7LGI5ybByQJQdkzE-14" value="" style="endArrow=classic;html=1;rounded=0;entryX=1;entryY=0.3333333333333333;entryDx=0;entryDy=0;entryPerimeter=0;exitX=0;exitY=0.3333333333333333;exitDx=0;exitDy=0;exitPerimeter=0;" parent="1" source="lOmS7LGI5ybByQJQdkzE-1" target="lOmS7LGI5ybByQJQdkzE-4" edge="1">
          <mxGeometry width="50" height="50" relative="1" as="geometry">
            <mxPoint x="-1397" y="-343" as="sourcePoint" />
            <mxPoint x="-1347" y="-393" as="targetPoint" />
          </mxGeometry>
        </mxCell>
        <mxCell id="lOmS7LGI5ybByQJQdkzE-16" value="Cuenta_Ahorro" style="ellipse;whiteSpace=wrap;html=1;fillColor=#fff2cc;strokeColor=#d6b656;" parent="1" vertex="1">
          <mxGeometry x="-932" y="-500" width="140" height="80" as="geometry" />
        </mxCell>
        <mxCell id="lOmS7LGI5ybByQJQdkzE-17" value="Cuenta_Corriente" style="ellipse;whiteSpace=wrap;html=1;fillColor=#fff2cc;strokeColor=#d6b656;" parent="1" vertex="1">
          <mxGeometry x="-801" y="-437" width="140" height="80" as="geometry" />
        </mxCell>
        <mxCell id="lOmS7LGI5ybByQJQdkzE-18" value="Cuenta_Plazo_Fijo" style="ellipse;whiteSpace=wrap;html=1;fillColor=#fff2cc;strokeColor=#d6b656;" parent="1" vertex="1">
          <mxGeometry x="-652" y="-404" width="140" height="80" as="geometry" />
        </mxCell>
        <mxCell id="lOmS7LGI5ybByQJQdkzE-28" value="" style="endArrow=classic;html=1;rounded=0;exitX=1;exitY=0.3333333333333333;exitDx=0;exitDy=0;exitPerimeter=0;" parent="1" source="lOmS7LGI5ybByQJQdkzE-1" target="lOmS7LGI5ybByQJQdkzE-2" edge="1">
          <mxGeometry width="50" height="50" relative="1" as="geometry">
            <mxPoint x="-1498" y="-432" as="sourcePoint" />
            <mxPoint x="-1448" y="-482" as="targetPoint" />
          </mxGeometry>
        </mxCell>
        <mxCell id="lOmS7LGI5ybByQJQdkzE-30" value="Banco" style="shape=umlActor;verticalLabelPosition=bottom;verticalAlign=top;html=1;outlineConnect=0;" parent="1" vertex="1">
          <mxGeometry x="-1252" y="-785" width="30" height="60" as="geometry" />
        </mxCell>
        <mxCell id="lOmS7LGI5ybByQJQdkzE-32" value="" style="endArrow=classic;html=1;rounded=0;" parent="1" source="lOmS7LGI5ybByQJQdkzE-30" target="lOmS7LGI5ybByQJQdkzE-2" edge="1">
          <mxGeometry width="50" height="50" relative="1" as="geometry">
            <mxPoint x="-1218" y="-292" as="sourcePoint" />
            <mxPoint x="-1168" y="-342" as="targetPoint" />
          </mxGeometry>
        </mxCell>
        <mxCell id="lOmS7LGI5ybByQJQdkzE-34" value="Realizar_Depositos" style="ellipse;whiteSpace=wrap;html=1;fillColor=#dae8fc;strokeColor=#6c8ebf;" parent="1" vertex="1">
          <mxGeometry x="-421" y="-685" width="160" height="80" as="geometry" />
        </mxCell>
        <mxCell id="lOmS7LGI5ybByQJQdkzE-35" value="Realizar_Retiros" style="ellipse;whiteSpace=wrap;html=1;fillColor=#dae8fc;strokeColor=#6c8ebf;" parent="1" vertex="1">
          <mxGeometry x="-409" y="-580" width="160" height="80" as="geometry" />
        </mxCell>
        <mxCell id="lOmS7LGI5ybByQJQdkzE-37" value="Consultar_Saldo" style="ellipse;whiteSpace=wrap;html=1;fillColor=#dae8fc;strokeColor=#6c8ebf;" parent="1" vertex="1">
          <mxGeometry x="-415" y="-479" width="160" height="80" as="geometry" />
        </mxCell>
        <mxCell id="lOmS7LGI5ybByQJQdkzE-40" value="Consultar_Movimientos" style="ellipse;whiteSpace=wrap;html=1;fillColor=#dae8fc;strokeColor=#6c8ebf;" parent="1" vertex="1">
          <mxGeometry x="-418" y="-378" width="160" height="80" as="geometry" />
        </mxCell>
        <mxCell id="lOmS7LGI5ybByQJQdkzE-66" value="" style="group" parent="1" vertex="1" connectable="0">
          <mxGeometry x="-885" y="-223" width="441" height="102" as="geometry" />
        </mxCell>
        <mxCell id="lOmS7LGI5ybByQJQdkzE-51" value="Leyenda" style="text;html=1;align=center;verticalAlign=middle;whiteSpace=wrap;rounded=0;fontSize=24;fontStyle=1" parent="lOmS7LGI5ybByQJQdkzE-66" vertex="1">
          <mxGeometry x="17" y="7" width="100" height="30" as="geometry" />
        </mxCell>
        <mxCell id="lOmS7LGI5ybByQJQdkzE-52" value="" style="ellipse;whiteSpace=wrap;html=1;fillColor=#fff2cc;strokeColor=#d6b656;" parent="lOmS7LGI5ybByQJQdkzE-66" vertex="1">
          <mxGeometry x="17" y="57" width="20" height="20" as="geometry" />
        </mxCell>
        <mxCell id="lOmS7LGI5ybByQJQdkzE-56" value="" style="ellipse;whiteSpace=wrap;html=1;fillColor=#d5e8d4;strokeColor=#82b366;" parent="lOmS7LGI5ybByQJQdkzE-66" vertex="1">
          <mxGeometry x="142" y="56" width="20" height="20" as="geometry" />
        </mxCell>
        <mxCell id="lOmS7LGI5ybByQJQdkzE-57" value="" style="ellipse;whiteSpace=wrap;html=1;fillColor=#dae8fc;strokeColor=#6c8ebf;" parent="lOmS7LGI5ybByQJQdkzE-66" vertex="1">
          <mxGeometry x="297" y="55" width="20" height="20" as="geometry" />
        </mxCell>
        <mxCell id="lOmS7LGI5ybByQJQdkzE-60" value="Entidades" style="text;html=1;align=center;verticalAlign=middle;whiteSpace=wrap;rounded=0;fontSize=24;fontStyle=0" parent="lOmS7LGI5ybByQJQdkzE-66" vertex="1">
          <mxGeometry x="167" y="52" width="120" height="30" as="geometry" />
        </mxCell>
        <mxCell id="lOmS7LGI5ybByQJQdkzE-61" value="Tipos" style="text;html=1;align=center;verticalAlign=middle;whiteSpace=wrap;rounded=0;fontSize=24;fontStyle=0" parent="lOmS7LGI5ybByQJQdkzE-66" vertex="1">
          <mxGeometry x="25" y="52" width="120" height="30" as="geometry" />
        </mxCell>
        <mxCell id="lOmS7LGI5ybByQJQdkzE-62" value="Metodos" style="text;html=1;align=center;verticalAlign=middle;whiteSpace=wrap;rounded=0;fontSize=24;fontStyle=0" parent="lOmS7LGI5ybByQJQdkzE-66" vertex="1">
          <mxGeometry x="317" y="50" width="120" height="30" as="geometry" />
        </mxCell>
        <mxCell id="lOmS7LGI5ybByQJQdkzE-64" value="" style="rounded=1;whiteSpace=wrap;html=1;fontColor=default;fillColor=none;" parent="lOmS7LGI5ybByQJQdkzE-66" vertex="1">
          <mxGeometry width="441" height="102" as="geometry" />
        </mxCell>
        <mxCell id="0ZuxWmy_i-_zA7fKXbt6-1" value="Cargar_Consumos" style="ellipse;whiteSpace=wrap;html=1;fillColor=#dae8fc;strokeColor=#6c8ebf;" parent="1" vertex="1">
          <mxGeometry x="-1506" y="-470" width="160" height="80" as="geometry" />
        </mxCell>
        <mxCell id="0ZuxWmy_i-_zA7fKXbt6-7" value="" style="endArrow=classic;html=1;rounded=0;exitX=0;exitY=1;exitDx=0;exitDy=0;exitPerimeter=0;" parent="1" source="lOmS7LGI5ybByQJQdkzE-1" target="lOmS7LGI5ybByQJQdkzE-5" edge="1">
          <mxGeometry width="50" height="50" relative="1" as="geometry">
            <mxPoint x="-1477" y="-613" as="sourcePoint" />
            <mxPoint x="-1560" y="-635" as="targetPoint" />
          </mxGeometry>
        </mxCell>
        <mxCell id="0ZuxWmy_i-_zA7fKXbt6-8" value="Credito_Personal" style="ellipse;whiteSpace=wrap;html=1;fillColor=#fff2cc;strokeColor=#d6b656;" parent="1" vertex="1">
          <mxGeometry x="-1182" y="-378" width="140" height="80" as="geometry" />
        </mxCell>
        <mxCell id="0ZuxWmy_i-_zA7fKXbt6-10" value="Cuentas" style="ellipse;whiteSpace=wrap;html=1;fillColor=#d5e8d4;strokeColor=#82b366;" parent="1" vertex="1">
          <mxGeometry x="-792" y="-660" width="140" height="80" as="geometry" />
        </mxCell>
        <mxCell id="0ZuxWmy_i-_zA7fKXbt6-11" value="Creditos" style="ellipse;whiteSpace=wrap;html=1;fillColor=#d5e8d4;strokeColor=#82b366;" parent="1" vertex="1">
          <mxGeometry x="-1109" y="-537" width="140" height="80" as="geometry" />
        </mxCell>
        <mxCell id="0ZuxWmy_i-_zA7fKXbt6-12" value="" style="endArrow=classic;html=1;rounded=0;exitX=0.5;exitY=1;exitDx=0;exitDy=0;entryX=0.5;entryY=0;entryDx=0;entryDy=0;" parent="1" source="lOmS7LGI5ybByQJQdkzE-2" target="0ZuxWmy_i-_zA7fKXbt6-11" edge="1">
          <mxGeometry width="50" height="50" relative="1" as="geometry">
            <mxPoint x="-1458" y="-562" as="sourcePoint" />
            <mxPoint x="-1284" y="-562" as="targetPoint" />
          </mxGeometry>
        </mxCell>
        <mxCell id="0ZuxWmy_i-_zA7fKXbt6-13" value="" style="endArrow=classic;html=1;rounded=0;exitX=1;exitY=0.5;exitDx=0;exitDy=0;entryX=0;entryY=0.5;entryDx=0;entryDy=0;" parent="1" source="lOmS7LGI5ybByQJQdkzE-2" target="0ZuxWmy_i-_zA7fKXbt6-10" edge="1">
          <mxGeometry width="50" height="50" relative="1" as="geometry">
            <mxPoint x="-1263" y="-534" as="sourcePoint" />
            <mxPoint x="-1363" y="-445" as="targetPoint" />
          </mxGeometry>
        </mxCell>
        <mxCell id="0ZuxWmy_i-_zA7fKXbt6-14" value="Credito_Empresarial" style="ellipse;whiteSpace=wrap;html=1;fillColor=#fff2cc;strokeColor=#d6b656;" parent="1" vertex="1">
          <mxGeometry x="-1022" y="-384" width="140" height="80" as="geometry" />
        </mxCell>
        <mxCell id="0ZuxWmy_i-_zA7fKXbt6-15" value="" style="endArrow=classic;html=1;rounded=0;entryX=0.5;entryY=0;entryDx=0;entryDy=0;" parent="1" source="0ZuxWmy_i-_zA7fKXbt6-11" target="0ZuxWmy_i-_zA7fKXbt6-8" edge="1">
          <mxGeometry width="50" height="50" relative="1" as="geometry">
            <mxPoint x="-1475" y="-375" as="sourcePoint" />
            <mxPoint x="-1564" y="-308" as="targetPoint" />
          </mxGeometry>
        </mxCell>
        <mxCell id="0ZuxWmy_i-_zA7fKXbt6-16" value="" style="endArrow=classic;html=1;rounded=0;exitX=0.645;exitY=0.966;exitDx=0;exitDy=0;entryX=0.5;entryY=0;entryDx=0;entryDy=0;exitPerimeter=0;" parent="1" source="0ZuxWmy_i-_zA7fKXbt6-11" target="0ZuxWmy_i-_zA7fKXbt6-14" edge="1">
          <mxGeometry width="50" height="50" relative="1" as="geometry">
            <mxPoint x="-1412" y="-377" as="sourcePoint" />
            <mxPoint x="-1579" y="-277" as="targetPoint" />
          </mxGeometry>
        </mxCell>
        <mxCell id="ck3J0RNxtsDwMsplJ45f-2" value="Sistema Bancario - Creditos - Cuentas - NTTDATA" style="text;html=1;align=center;verticalAlign=middle;whiteSpace=wrap;rounded=0;fontSize=24;fontStyle=1" parent="1" vertex="1">
          <mxGeometry x="-1787" y="-840" width="605" height="30" as="geometry" />
        </mxCell>
        <mxCell id="ck3J0RNxtsDwMsplJ45f-10" value="" style="endArrow=classic;html=1;rounded=0;exitX=0;exitY=1;exitDx=0;exitDy=0;" parent="1" source="0ZuxWmy_i-_zA7fKXbt6-10" target="lOmS7LGI5ybByQJQdkzE-16" edge="1">
          <mxGeometry width="50" height="50" relative="1" as="geometry">
            <mxPoint x="-1355" y="-431" as="sourcePoint" />
            <mxPoint x="-1306" y="-376" as="targetPoint" />
          </mxGeometry>
        </mxCell>
        <mxCell id="ck3J0RNxtsDwMsplJ45f-11" value="" style="endArrow=classic;html=1;rounded=0;exitX=0.423;exitY=1.023;exitDx=0;exitDy=0;entryX=0.5;entryY=0;entryDx=0;entryDy=0;exitPerimeter=0;" parent="1" source="0ZuxWmy_i-_zA7fKXbt6-10" target="lOmS7LGI5ybByQJQdkzE-17" edge="1">
          <mxGeometry width="50" height="50" relative="1" as="geometry">
            <mxPoint x="-1162" y="-428" as="sourcePoint" />
            <mxPoint x="-1199" y="-292" as="targetPoint" />
          </mxGeometry>
        </mxCell>
        <mxCell id="ck3J0RNxtsDwMsplJ45f-12" value="" style="endArrow=classic;html=1;rounded=0;exitX=1;exitY=1;exitDx=0;exitDy=0;entryX=0.5;entryY=0;entryDx=0;entryDy=0;" parent="1" source="0ZuxWmy_i-_zA7fKXbt6-10" target="lOmS7LGI5ybByQJQdkzE-18" edge="1">
          <mxGeometry width="50" height="50" relative="1" as="geometry">
            <mxPoint x="-1162" y="-428" as="sourcePoint" />
            <mxPoint x="-1207" y="-297" as="targetPoint" />
          </mxGeometry>
        </mxCell>
        <mxCell id="NpRbtF6vB1Uw2miUPayP-1" value="Pagar_Consumos" style="ellipse;whiteSpace=wrap;html=1;fillColor=#dae8fc;strokeColor=#6c8ebf;" parent="1" vertex="1">
          <mxGeometry x="-1399" y="-568" width="160" height="80" as="geometry" />
        </mxCell>
        <mxCell id="QLj980tCngamSMK7YVIk-1" value="" style="endArrow=classic;html=1;rounded=0;entryX=1;entryY=0.5;entryDx=0;entryDy=0;" parent="1" source="0ZuxWmy_i-_zA7fKXbt6-11" target="NpRbtF6vB1Uw2miUPayP-1" edge="1">
          <mxGeometry width="50" height="50" relative="1" as="geometry">
            <mxPoint x="-1078" y="-585" as="sourcePoint" />
            <mxPoint x="-1202" y="-488" as="targetPoint" />
          </mxGeometry>
        </mxCell>
        <mxCell id="QLj980tCngamSMK7YVIk-2" value="" style="endArrow=classic;html=1;rounded=0;exitX=1;exitY=0;exitDx=0;exitDy=0;entryX=0;entryY=0.5;entryDx=0;entryDy=0;" parent="1" source="0ZuxWmy_i-_zA7fKXbt6-10" target="lOmS7LGI5ybByQJQdkzE-34" edge="1">
          <mxGeometry width="50" height="50" relative="1" as="geometry">
            <mxPoint x="-1002" y="-577" as="sourcePoint" />
            <mxPoint x="-744" y="-490" as="targetPoint" />
          </mxGeometry>
        </mxCell>
        <mxCell id="QLj980tCngamSMK7YVIk-3" value="" style="endArrow=classic;html=1;rounded=0;exitX=1;exitY=0.5;exitDx=0;exitDy=0;entryX=0;entryY=0.5;entryDx=0;entryDy=0;" parent="1" source="0ZuxWmy_i-_zA7fKXbt6-10" target="lOmS7LGI5ybByQJQdkzE-35" edge="1">
          <mxGeometry width="50" height="50" relative="1" as="geometry">
            <mxPoint x="-695" y="-478" as="sourcePoint" />
            <mxPoint x="-508" y="-603" as="targetPoint" />
          </mxGeometry>
        </mxCell>
        <mxCell id="QLj980tCngamSMK7YVIk-4" value="" style="endArrow=classic;html=1;rounded=0;exitX=0.986;exitY=0.65;exitDx=0;exitDy=0;entryX=0;entryY=0.5;entryDx=0;entryDy=0;exitPerimeter=0;" parent="1" source="0ZuxWmy_i-_zA7fKXbt6-10" target="lOmS7LGI5ybByQJQdkzE-37" edge="1">
          <mxGeometry width="50" height="50" relative="1" as="geometry">
            <mxPoint x="-674" y="-450" as="sourcePoint" />
            <mxPoint x="-399" y="-530" as="targetPoint" />
          </mxGeometry>
        </mxCell>
        <mxCell id="QLj980tCngamSMK7YVIk-5" value="" style="endArrow=classic;html=1;rounded=0;exitX=0.959;exitY=0.721;exitDx=0;exitDy=0;entryX=0;entryY=0.5;entryDx=0;entryDy=0;exitPerimeter=0;" parent="1" source="0ZuxWmy_i-_zA7fKXbt6-10" target="lOmS7LGI5ybByQJQdkzE-40" edge="1">
          <mxGeometry width="50" height="50" relative="1" as="geometry">
            <mxPoint x="-676" y="-438" as="sourcePoint" />
            <mxPoint x="-405" y="-429" as="targetPoint" />
          </mxGeometry>
        </mxCell>
        <mxCell id="QLj980tCngamSMK7YVIk-6" value="" style="endArrow=classic;html=1;rounded=0;entryX=0.98;entryY=0.389;entryDx=0;entryDy=0;entryPerimeter=0;" parent="1" source="0ZuxWmy_i-_zA7fKXbt6-11" target="0ZuxWmy_i-_zA7fKXbt6-1" edge="1">
          <mxGeometry width="50" height="50" relative="1" as="geometry">
            <mxPoint x="-1242" y="-450" as="sourcePoint" />
            <mxPoint x="-1339" y="-450" as="targetPoint" />
          </mxGeometry>
        </mxCell>
        <mxCell id="QLj980tCngamSMK7YVIk-8" value="Consultar_Saldo" style="ellipse;whiteSpace=wrap;html=1;fillColor=#dae8fc;strokeColor=#6c8ebf;" parent="1" vertex="1">
          <mxGeometry x="-1427" y="-274" width="160" height="80" as="geometry" />
        </mxCell>
        <mxCell id="QLj980tCngamSMK7YVIk-9" value="Consultar_Movimientos" style="ellipse;whiteSpace=wrap;html=1;fillColor=#dae8fc;strokeColor=#6c8ebf;" parent="1" vertex="1">
          <mxGeometry x="-1532" y="-364" width="160" height="80" as="geometry" />
        </mxCell>
        <mxCell id="QLj980tCngamSMK7YVIk-10" value="" style="endArrow=classic;html=1;rounded=0;entryX=0.985;entryY=0.331;entryDx=0;entryDy=0;entryPerimeter=0;" parent="1" target="QLj980tCngamSMK7YVIk-9" edge="1">
          <mxGeometry width="50" height="50" relative="1" as="geometry">
            <mxPoint x="-1096" y="-475" as="sourcePoint" />
            <mxPoint x="-1339" y="-429" as="targetPoint" />
          </mxGeometry>
        </mxCell>
        <mxCell id="QLj980tCngamSMK7YVIk-11" value="" style="endArrow=classic;html=1;rounded=0;entryX=0.5;entryY=0;entryDx=0;entryDy=0;" parent="1" source="0ZuxWmy_i-_zA7fKXbt6-11" target="QLj980tCngamSMK7YVIk-8" edge="1">
          <mxGeometry width="50" height="50" relative="1" as="geometry">
            <mxPoint x="-1086" y="-465" as="sourcePoint" />
            <mxPoint x="-1364" y="-328" as="targetPoint" />
          </mxGeometry>
        </mxCell>
      </root>
    </mxGraphModel>
  </diagram>
  <diagram id="C5RBs43oDa-KdzZeNtuy" name="Entityes">
    <mxGraphModel dx="794" dy="519" grid="0" gridSize="10" guides="1" tooltips="1" connect="1" arrows="1" fold="1" page="1" pageScale="1" pageWidth="827" pageHeight="1169" math="0" shadow="0">
      <root>
        <mxCell id="WIyWlLk6GJQsqaUBKTNV-0" />
        <mxCell id="WIyWlLk6GJQsqaUBKTNV-1" parent="WIyWlLk6GJQsqaUBKTNV-0" />
        <mxCell id="c2GUi-caobG2v578m-VY-2" style="edgeStyle=orthogonalEdgeStyle;rounded=0;orthogonalLoop=1;jettySize=auto;html=1;entryX=0;entryY=0.25;entryDx=0;entryDy=0;" parent="WIyWlLk6GJQsqaUBKTNV-1" source="QRJX2u9M6czq8qBslyQO-0" target="QRJX2u9M6czq8qBslyQO-5" edge="1">
          <mxGeometry relative="1" as="geometry">
            <Array as="points">
              <mxPoint x="210" y="378" />
            </Array>
          </mxGeometry>
        </mxCell>
        <mxCell id="QRJX2u9M6czq8qBslyQO-0" value="Cliente" style="swimlane;childLayout=stackLayout;horizontal=1;startSize=30;horizontalStack=0;rounded=1;fontSize=14;fontStyle=0;strokeWidth=2;resizeParent=0;resizeLast=1;shadow=0;dashed=0;align=center;arcSize=4;whiteSpace=wrap;html=1;" parent="WIyWlLk6GJQsqaUBKTNV-1" vertex="1">
          <mxGeometry x="130" y="120" width="160" height="120" as="geometry" />
        </mxCell>
        <mxCell id="QRJX2u9M6czq8qBslyQO-1" value="cod_cli&lt;br&gt;nom_cli&lt;br&gt;ape_cli" style="align=left;strokeColor=none;fillColor=none;spacingLeft=4;fontSize=12;verticalAlign=top;resizable=0;rotatable=0;part=1;html=1;" parent="QRJX2u9M6czq8qBslyQO-0" vertex="1">
          <mxGeometry y="30" width="160" height="90" as="geometry" />
        </mxCell>
        <mxCell id="QRJX2u9M6czq8qBslyQO-2" value="Credito" style="swimlane;childLayout=stackLayout;horizontal=1;startSize=30;horizontalStack=0;rounded=1;fontSize=14;fontStyle=0;strokeWidth=2;resizeParent=0;resizeLast=1;shadow=0;dashed=0;align=center;arcSize=4;whiteSpace=wrap;html=1;" parent="WIyWlLk6GJQsqaUBKTNV-1" vertex="1">
          <mxGeometry x="517" y="120" width="160" height="120" as="geometry" />
        </mxCell>
        <mxCell id="QRJX2u9M6czq8qBslyQO-3" value="cod_cred&lt;br&gt;tipo_cred&lt;br&gt;limite_cred&lt;br&gt;consumo_actual&lt;br&gt;estado" style="align=left;strokeColor=none;fillColor=none;spacingLeft=4;fontSize=12;verticalAlign=top;resizable=0;rotatable=0;part=1;html=1;" parent="QRJX2u9M6czq8qBslyQO-2" vertex="1">
          <mxGeometry y="30" width="160" height="90" as="geometry" />
        </mxCell>
        <mxCell id="QRJX2u9M6czq8qBslyQO-4" value="Cuenta" style="swimlane;childLayout=stackLayout;horizontal=1;startSize=30;horizontalStack=0;rounded=1;fontSize=14;fontStyle=0;strokeWidth=2;resizeParent=0;resizeLast=1;shadow=0;dashed=0;align=center;arcSize=4;whiteSpace=wrap;html=1;" parent="WIyWlLk6GJQsqaUBKTNV-1" vertex="1">
          <mxGeometry x="520" y="320" width="160" height="120" as="geometry" />
        </mxCell>
        <mxCell id="QRJX2u9M6czq8qBslyQO-5" value="cod_cta&lt;br&gt;tipo_cta&lt;br&gt;titular_cta&lt;br&gt;saldo_cta&lt;br&gt;firmate_autorizado_cta" style="align=left;strokeColor=none;fillColor=none;spacingLeft=4;fontSize=12;verticalAlign=top;resizable=0;rotatable=0;part=1;html=1;" parent="QRJX2u9M6czq8qBslyQO-4" vertex="1">
          <mxGeometry y="30" width="160" height="90" as="geometry" />
        </mxCell>
        <mxCell id="c2GUi-caobG2v578m-VY-1" style="edgeStyle=orthogonalEdgeStyle;rounded=0;orthogonalLoop=1;jettySize=auto;html=1;" parent="WIyWlLk6GJQsqaUBKTNV-1" source="QRJX2u9M6czq8qBslyQO-1" target="QRJX2u9M6czq8qBslyQO-3" edge="1">
          <mxGeometry relative="1" as="geometry">
            <Array as="points">
              <mxPoint x="440" y="180" />
              <mxPoint x="440" y="180" />
            </Array>
          </mxGeometry>
        </mxCell>
      </root>
    </mxGraphModel>
  </diagram>
  <diagram id="iI1PaX8Ek07ZCjY_CHOS" name="Diagrama_Bancario_NTTDATA">
    <mxGraphModel dx="1780" dy="741" grid="0" gridSize="10" guides="1" tooltips="1" connect="1" arrows="1" fold="1" page="1" pageScale="1" pageWidth="2000" pageHeight="1000" math="0" shadow="0">
      <root>
        <mxCell id="0" />
        <mxCell id="1" parent="0" />
        <mxCell id="_GCWVmaHbdbMoyD0e-gm-1" style="edgeStyle=orthogonalEdgeStyle;rounded=0;orthogonalLoop=1;jettySize=auto;html=1;entryX=0;entryY=0.5;entryDx=0;entryDy=0;entryPerimeter=0;" parent="1" source="gf6o0wJTNaybLEvcuHoC-1" target="PDgOTdbaDutgGkA2jV5B-1" edge="1">
          <mxGeometry relative="1" as="geometry">
            <Array as="points">
              <mxPoint x="200" y="320" />
              <mxPoint x="200" y="223" />
            </Array>
          </mxGeometry>
        </mxCell>
        <mxCell id="_GCWVmaHbdbMoyD0e-gm-2" style="edgeStyle=orthogonalEdgeStyle;rounded=0;orthogonalLoop=1;jettySize=auto;html=1;entryX=0;entryY=0.5;entryDx=0;entryDy=0;" parent="1" source="gf6o0wJTNaybLEvcuHoC-1" target="PDgOTdbaDutgGkA2jV5B-2" edge="1">
          <mxGeometry relative="1" as="geometry" />
        </mxCell>
        <mxCell id="gf6o0wJTNaybLEvcuHoC-1" value="Sistema_Bancario" style="rounded=0;whiteSpace=wrap;html=1;fontStyle=1" parent="1" vertex="1">
          <mxGeometry x="40" y="295" width="120" height="50" as="geometry" />
        </mxCell>
        <mxCell id="gf6o0wJTNaybLEvcuHoC-2" value="ms_pagar_consumo" style="rounded=0;whiteSpace=wrap;html=1;fontStyle=1" parent="1" vertex="1">
          <mxGeometry x="589" y="146" width="180" height="50" as="geometry" />
        </mxCell>
        <mxCell id="gf6o0wJTNaybLEvcuHoC-3" value="ms_cargar_consumo" style="rounded=0;whiteSpace=wrap;html=1;fontStyle=1" parent="1" vertex="1">
          <mxGeometry x="585" y="240" width="180" height="50" as="geometry" />
        </mxCell>
        <mxCell id="Se_d0xU82shCiYAwv5EA-2" style="edgeStyle=orthogonalEdgeStyle;rounded=0;orthogonalLoop=1;jettySize=auto;html=1;entryX=0;entryY=0.5;entryDx=0;entryDy=0;" parent="1" source="PDgOTdbaDutgGkA2jV5B-1" target="gf6o0wJTNaybLEvcuHoC-2" edge="1">
          <mxGeometry relative="1" as="geometry">
            <Array as="points">
              <mxPoint x="470" y="223" />
              <mxPoint x="470" y="171" />
            </Array>
          </mxGeometry>
        </mxCell>
        <mxCell id="Se_d0xU82shCiYAwv5EA-3" style="edgeStyle=orthogonalEdgeStyle;rounded=0;orthogonalLoop=1;jettySize=auto;html=1;" parent="1" source="PDgOTdbaDutgGkA2jV5B-1" target="gf6o0wJTNaybLEvcuHoC-3" edge="1">
          <mxGeometry relative="1" as="geometry">
            <Array as="points">
              <mxPoint x="470" y="223" />
              <mxPoint x="470" y="265" />
            </Array>
          </mxGeometry>
        </mxCell>
        <mxCell id="jwyG83SBqA279QAHXyuc-8" style="edgeStyle=orthogonalEdgeStyle;rounded=0;orthogonalLoop=1;jettySize=auto;html=1;entryX=0;entryY=0.5;entryDx=0;entryDy=0;" parent="1" source="PDgOTdbaDutgGkA2jV5B-1" target="jwyG83SBqA279QAHXyuc-5" edge="1">
          <mxGeometry relative="1" as="geometry">
            <Array as="points">
              <mxPoint x="300" y="85" />
            </Array>
          </mxGeometry>
        </mxCell>
        <mxCell id="eMZ921Pypk3qeuof4A7k-1" style="edgeStyle=orthogonalEdgeStyle;rounded=0;orthogonalLoop=1;jettySize=auto;html=1;entryX=0;entryY=0.5;entryDx=0;entryDy=0;" edge="1" parent="1" source="PDgOTdbaDutgGkA2jV5B-1" target="jwyG83SBqA279QAHXyuc-6">
          <mxGeometry relative="1" as="geometry">
            <Array as="points">
              <mxPoint x="417" y="223" />
              <mxPoint x="417" y="515" />
            </Array>
          </mxGeometry>
        </mxCell>
        <mxCell id="PDgOTdbaDutgGkA2jV5B-1" value="Credito" style="rounded=0;whiteSpace=wrap;html=1;fontStyle=1" parent="1" vertex="1">
          <mxGeometry x="230" y="203" width="120" height="40" as="geometry" />
        </mxCell>
        <mxCell id="jwyG83SBqA279QAHXyuc-3" style="edgeStyle=orthogonalEdgeStyle;rounded=0;orthogonalLoop=1;jettySize=auto;html=1;entryX=0;entryY=0.5;entryDx=0;entryDy=0;" parent="1" source="PDgOTdbaDutgGkA2jV5B-2" target="jwyG83SBqA279QAHXyuc-1" edge="1">
          <mxGeometry relative="1" as="geometry" />
        </mxCell>
        <mxCell id="jwyG83SBqA279QAHXyuc-4" style="edgeStyle=orthogonalEdgeStyle;rounded=0;orthogonalLoop=1;jettySize=auto;html=1;entryX=0;entryY=0.5;entryDx=0;entryDy=0;" parent="1" source="PDgOTdbaDutgGkA2jV5B-2" target="jwyG83SBqA279QAHXyuc-2" edge="1">
          <mxGeometry relative="1" as="geometry" />
        </mxCell>
        <mxCell id="eMZ921Pypk3qeuof4A7k-2" style="edgeStyle=orthogonalEdgeStyle;rounded=0;orthogonalLoop=1;jettySize=auto;html=1;entryX=0;entryY=0.5;entryDx=0;entryDy=0;" edge="1" parent="1" source="PDgOTdbaDutgGkA2jV5B-2" target="jwyG83SBqA279QAHXyuc-6">
          <mxGeometry relative="1" as="geometry">
            <Array as="points">
              <mxPoint x="294" y="515" />
            </Array>
          </mxGeometry>
        </mxCell>
        <mxCell id="eMZ921Pypk3qeuof4A7k-3" style="edgeStyle=orthogonalEdgeStyle;rounded=0;orthogonalLoop=1;jettySize=auto;html=1;entryX=0;entryY=0.5;entryDx=0;entryDy=0;" edge="1" parent="1" source="PDgOTdbaDutgGkA2jV5B-2" target="jwyG83SBqA279QAHXyuc-5">
          <mxGeometry relative="1" as="geometry">
            <Array as="points">
              <mxPoint x="418" y="420" />
              <mxPoint x="418" y="85" />
            </Array>
          </mxGeometry>
        </mxCell>
        <mxCell id="PDgOTdbaDutgGkA2jV5B-2" value="Cuenta" style="rounded=0;whiteSpace=wrap;html=1;fontStyle=1" parent="1" vertex="1">
          <mxGeometry x="240" y="400" width="120" height="40" as="geometry" />
        </mxCell>
        <mxCell id="jwyG83SBqA279QAHXyuc-1" value="ms_deposito_cuenta" style="rounded=0;whiteSpace=wrap;html=1;fontStyle=1" parent="1" vertex="1">
          <mxGeometry x="580" y="360" width="180" height="50" as="geometry" />
        </mxCell>
        <mxCell id="jwyG83SBqA279QAHXyuc-2" value="ms_retiro_cuenta" style="rounded=0;whiteSpace=wrap;html=1;fontStyle=1" parent="1" vertex="1">
          <mxGeometry x="580" y="440" width="180" height="50" as="geometry" />
        </mxCell>
        <mxCell id="jwyG83SBqA279QAHXyuc-5" value="ms_consultar_saldo" style="rounded=0;whiteSpace=wrap;html=1;fontStyle=1" parent="1" vertex="1">
          <mxGeometry x="800" y="60" width="180" height="50" as="geometry" />
        </mxCell>
        <mxCell id="jwyG83SBqA279QAHXyuc-6" value="ms_consultar_movimientos" style="rounded=0;whiteSpace=wrap;html=1;fontStyle=1" parent="1" vertex="1">
          <mxGeometry x="800" y="490" width="180" height="50" as="geometry" />
        </mxCell>
        <mxCell id="jwyG83SBqA279QAHXyuc-7" value="BD_BANCO_NTTDATA" style="shape=cylinder3;whiteSpace=wrap;html=1;boundedLbl=1;backgroundOutline=1;size=15;fontStyle=1" parent="1" vertex="1">
          <mxGeometry x="1180" y="265" width="60" height="80" as="geometry" />
        </mxCell>
        <mxCell id="jwyG83SBqA279QAHXyuc-11" style="edgeStyle=orthogonalEdgeStyle;rounded=0;orthogonalLoop=1;jettySize=auto;html=1;entryX=0.5;entryY=0;entryDx=0;entryDy=0;entryPerimeter=0;" parent="1" source="jwyG83SBqA279QAHXyuc-5" target="jwyG83SBqA279QAHXyuc-7" edge="1">
          <mxGeometry relative="1" as="geometry" />
        </mxCell>
        <mxCell id="jwyG83SBqA279QAHXyuc-12" style="edgeStyle=orthogonalEdgeStyle;rounded=0;orthogonalLoop=1;jettySize=auto;html=1;entryX=0.5;entryY=1;entryDx=0;entryDy=0;entryPerimeter=0;" parent="1" source="jwyG83SBqA279QAHXyuc-6" target="jwyG83SBqA279QAHXyuc-7" edge="1">
          <mxGeometry relative="1" as="geometry" />
        </mxCell>
        <mxCell id="jwyG83SBqA279QAHXyuc-13" style="edgeStyle=orthogonalEdgeStyle;rounded=0;orthogonalLoop=1;jettySize=auto;html=1;entryX=0;entryY=0.5;entryDx=0;entryDy=0;entryPerimeter=0;" parent="1" source="jwyG83SBqA279QAHXyuc-1" target="jwyG83SBqA279QAHXyuc-7" edge="1">
          <mxGeometry relative="1" as="geometry" />
        </mxCell>
        <mxCell id="jwyG83SBqA279QAHXyuc-14" style="edgeStyle=orthogonalEdgeStyle;rounded=0;orthogonalLoop=1;jettySize=auto;html=1;entryX=0;entryY=0.5;entryDx=0;entryDy=0;entryPerimeter=0;" parent="1" source="jwyG83SBqA279QAHXyuc-2" target="jwyG83SBqA279QAHXyuc-7" edge="1">
          <mxGeometry relative="1" as="geometry">
            <Array as="points">
              <mxPoint x="970" y="465" />
              <mxPoint x="970" y="305" />
            </Array>
          </mxGeometry>
        </mxCell>
        <mxCell id="jwyG83SBqA279QAHXyuc-16" style="edgeStyle=orthogonalEdgeStyle;rounded=0;orthogonalLoop=1;jettySize=auto;html=1;entryX=0;entryY=0.5;entryDx=0;entryDy=0;entryPerimeter=0;" parent="1" source="gf6o0wJTNaybLEvcuHoC-3" target="jwyG83SBqA279QAHXyuc-7" edge="1">
          <mxGeometry relative="1" as="geometry">
            <Array as="points">
              <mxPoint x="971" y="265" />
              <mxPoint x="971" y="305" />
            </Array>
          </mxGeometry>
        </mxCell>
        <mxCell id="jwyG83SBqA279QAHXyuc-17" style="edgeStyle=orthogonalEdgeStyle;rounded=0;orthogonalLoop=1;jettySize=auto;html=1;entryX=0;entryY=0.5;entryDx=0;entryDy=0;entryPerimeter=0;" parent="1" source="gf6o0wJTNaybLEvcuHoC-2" target="jwyG83SBqA279QAHXyuc-7" edge="1">
          <mxGeometry relative="1" as="geometry">
            <Array as="points">
              <mxPoint x="971" y="171" />
              <mxPoint x="971" y="305" />
            </Array>
          </mxGeometry>
        </mxCell>
      </root>
    </mxGraphModel>
  </diagram>
</mxfile>
